<svg id="visual" viewBox="0 0 960 540" width="960" height="540" xmlns="http://www.w3.org/2000/svg" xmlns:xlink="http://www.w3.org/1999/xlink" version="1.1"><rect x="0" y="0" width="960" height="540" fill="#2c2c2c"></rect><defs><linearGradient id="grad1_0" x1="43.8%" y1="0%" x2="100%" y2="100%"><stop offset="14.444444444444446%" stop-color="#872341" stop-opacity="1"></stop><stop offset="85.55555555555554%" stop-color="#872341" stop-opacity="1"></stop></linearGradient></defs><defs><linearGradient id="grad1_1" x1="43.8%" y1="0%" x2="100%" y2="100%"><stop offset="14.444444444444446%" stop-color="#872341" stop-opacity="1"></stop><stop offset="85.55555555555554%" stop-color="#692b3a" stop-opacity="1"></stop></linearGradient></defs><defs><linearGradient id="grad1_2" x1="43.8%" y1="0%" x2="100%" y2="100%"><stop offset="14.444444444444446%" stop-color="#4b2d33" stop-opacity="1"></stop><stop offset="85.55555555555554%" stop-color="#692b3a" stop-opacity="1"></stop></linearGradient></defs><defs><linearGradient id="grad1_3" x1="43.8%" y1="0%" x2="100%" y2="100%"><stop offset="14.444444444444446%" stop-color="#4b2d33" stop-opacity="1"></stop><stop offset="85.55555555555554%" stop-color="#2c2c2c" stop-opacity="1"></stop></linearGradient></defs><defs><linearGradient id="grad2_0" x1="0%" y1="0%" x2="56.3%" y2="100%"><stop offset="14.444444444444446%" stop-color="#872341" stop-opacity="1"></stop><stop offset="85.55555555555554%" stop-color="#872341" stop-opacity="1"></stop></linearGradient></defs><defs><linearGradient id="grad2_1" x1="0%" y1="0%" x2="56.3%" y2="100%"><stop offset="14.444444444444446%" stop-color="#692b3a" stop-opacity="1"></stop><stop offset="85.55555555555554%" stop-color="#872341" stop-opacity="1"></stop></linearGradient></defs><defs><linearGradient id="grad2_2" x1="0%" y1="0%" x2="56.3%" y2="100%"><stop offset="14.444444444444446%" stop-color="#692b3a" stop-opacity="1"></stop><stop offset="85.55555555555554%" stop-color="#4b2d33" stop-opacity="1"></stop></linearGradient></defs><defs><linearGradient id="grad2_3" x1="0%" y1="0%" x2="56.3%" y2="100%"><stop offset="14.444444444444446%" stop-color="#2c2c2c" stop-opacity="1"></stop><stop offset="85.55555555555554%" stop-color="#4b2d33" stop-opacity="1"></stop></linearGradient></defs><g transform="translate(960, 0)"><path d="M0 405C-47 386.5 -93.9 368.1 -145.8 352C-197.7 335.9 -254.5 322.2 -286.4 286.4C-318.3 250.6 -325.3 192.6 -340.9 141.2C-356.5 89.8 -380.8 44.9 -405 0L0 0Z" fill="#3c2d2f"></path><path d="M0 303.8C-35.2 289.9 -70.4 276.1 -109.4 264C-148.3 251.9 -190.9 241.7 -214.8 214.8C-238.7 187.9 -244 144.5 -255.7 105.9C-267.4 67.3 -285.6 33.7 -303.7 0L0 0Z" fill="#5a2c36"></path><path d="M0 202.5C-23.5 193.3 -47 184 -72.9 176C-98.8 168 -127.2 161.1 -143.2 143.2C-159.1 125.3 -162.6 96.3 -170.5 70.6C-178.3 44.9 -190.4 22.4 -202.5 0L0 0Z" fill="#78283d"></path><path d="M0 101.3C-11.7 96.6 -23.5 92 -36.5 88C-49.4 84 -63.6 80.6 -71.6 71.6C-79.6 62.6 -81.3 48.2 -85.2 35.3C-89.1 22.4 -95.2 11.2 -101.2 0L0 0Z" fill="#872341"></path></g><g transform="translate(0, 540)"><path d="M0 -405C52.8 -399.3 105.6 -393.7 155 -374.2C204.3 -354.7 250.2 -321.3 280 -280C309.9 -238.7 323.7 -189.6 341.8 -141.6C360 -93.6 382.5 -46.8 405 0L0 0Z" fill="#3c2d2f"></path><path d="M0 -303.7C39.6 -299.5 79.2 -295.3 116.2 -280.6C153.2 -266 187.6 -241 210 -210C232.4 -179.1 242.8 -142.2 256.4 -106.2C270 -70.2 286.9 -35.1 303.8 0L0 0Z" fill="#5a2c36"></path><path d="M0 -202.5C26.4 -199.7 52.8 -196.8 77.5 -187.1C102.2 -177.3 125.1 -160.6 140 -140C154.9 -119.4 161.8 -94.8 170.9 -70.8C180 -46.8 191.2 -23.4 202.5 0L0 0Z" fill="#78283d"></path><path d="M0 -101.2C13.2 -99.8 26.4 -98.4 38.7 -93.5C51.1 -88.7 62.5 -80.3 70 -70C77.5 -59.7 80.9 -47.4 85.5 -35.4C90 -23.4 95.6 -11.7 101.3 0L0 0Z" fill="#872341"></path></g></svg>