<?xml version="1.0" encoding="utf-8"?>
<!-- Designed by Vexels.com - 2020 All Rights Reserved - https://vexels.com/terms-and-conditions/  -->
<svg version="1.1" id="Capa_1" xmlns="http://www.w3.org/2000/svg" xmlns:xlink="http://www.w3.org/1999/xlink" x="0px" y="0px"
	 viewBox="0 0 1200 1200" enable-background="new 0 0 1200 1200" xml:space="preserve">
<path fill="#242323" d="M627.52,639.665l-4.968-27.092c-11.871-64.741-23.743-129.482-35.622-194.221l-0.163-0.897
	c-0.373-2.054-0.758-4.178-1.335-6.183c-0.643-2.236-1.977-2.999-4.492-2.547c-2.445,0.448-3.45,1.661-3.259,3.931
	c0.188,2.223,0.615,4.492,1.029,6.685l0.087,0.462c6.267,33.313,12.464,67.214,18.457,99.999
	c10.026,54.846,20.393,111.558,31.391,167.184c1.786,9.032,3.464,18.239,5.087,27.142c0.647,3.55,1.294,7.1,1.949,10.648
	l9.26,50.169c5.563,30.143,11.126,60.285,16.697,90.426c0.366,1.983,0.813,4.283,1.47,6.495c0.157,0.529,0.485,1.631,2.961,1.177
	c2.475-0.454,2.42-1.602,2.394-2.154c-0.091-1.886-0.403-3.819-0.696-5.461c-2.856-16.012-5.824-32.281-8.694-48.014
	c-5.639-30.911-11.471-62.874-16.727-94.403c-3.159-18.95-6.763-38.158-10.248-56.733c-1.569-8.364-3.192-17.014-4.753-25.527
	l-0.187-1.02L627.52,639.665z M584.207,392.977c0.019-0.01,0.038-0.021,0.057-0.032c0.689-0.386,1.339-0.75,1.623-1.197
	c0.409-0.643,0.421-1.68,0.032-2.706c-0.425-1.121-1.243-2-2.082-2.24c-2.351-0.672-4.655-0.809-6.847-0.407
	c-2.294,0.421-4.513,1.439-6.593,3.027c-1.221,0.932-1.414,3.16-0.423,4.865c0.325,0.559,0.959,1.153,2.995,0.779
	c0.131-0.024,0.265-0.052,0.402-0.083l10.652-2.414L584.207,392.977z M588.523,348.846c0.8-3.127,0.106-5.274-2.396-7.41
	c-3.875-3.308-7.706-6.787-11.411-10.15c-1.674-1.52-3.347-3.039-5.03-4.548c-0.729-0.654-1.389-1.235-2.082-1.73
	c-0.944-0.674-1.649-0.956-2.157-0.863c-0.476,0.087-0.985,0.552-1.554,1.42c-0.327,0.499-0.606,1.041-0.902,1.614l-0.813,1.566
	c-3.159,6.084-6.318,12.168-9.463,18.26c-0.519,1.005-0.987,2.08-1.384,3.009c-0.506,1.18-0.43,2.286,0.232,3.383l0.149,0.247
	c0.423,0.702,0.86,1.428,1.315,2.11c4.393,6.576,8.788,13.15,13.2,19.712c0.565,0.84,1.211,1.699,1.974,2.625
	c0.956,1.159,2.127,1.646,3.579,1.489c0.753-0.082,1.525-0.194,2.272-0.302c0.351-0.051,0.702-0.102,1.054-0.15l0.066-0.007
	c0.471-0.034,0.926-0.092,1.353-0.17c3.711-0.68,5.862-3.061,6.771-7.491C584.804,364.111,586.563,356.503,588.523,348.846z
	 M524.467,381.665C524.467,381.665,524.467,381.665,524.467,381.665c2.336-0.428,3.862-1.924,4.947-4.849
	c0.572-1.542,0.349-2.148-1.084-2.949c-0.61-0.341-1.29-0.629-1.934-0.894c-2.468-1.017-4.939-2.026-7.411-3.035
	c-5.447-2.225-11.079-4.525-16.587-6.871c-1.962-0.836-3.735-1.092-5.421-0.783c-1.094,0.201-2.16,0.633-3.258,1.321
	c-3.367,2.11-6.831,4.178-10.182,6.178c-1.601,0.956-3.202,1.911-4.798,2.874l-2.849,1.716c-3.656,2.202-7.438,4.479-11.123,6.766
	c-0.202,0.126-0.418,0.243-0.637,0.362c-0.784,0.424-1.17,0.674-1.291,1.114c0.674,0.423,1.482,0.394,2.642,0.311
	c0.352-0.025,0.702-0.05,1.048-0.055c10.483-0.174,21.486-0.375,32.703-0.599c2.663-0.053,5.325-0.123,7.988-0.193
	c5.148-0.136,10.471-0.276,15.713-0.284C523.478,381.796,523.994,381.751,524.467,381.665z M521.305,389.234
	c-1.978-0.224-3.771-0.316-5.482-0.282c-7.616,0.153-15.232,0.316-22.848,0.479c-12.874,0.276-26.187,0.561-39.283,0.789
	c-0.892,0.016-1.757,0.099-2.572,0.249c-1.728,0.317-3.331,0.939-4.899,1.903c-3.109,1.91-6.291,3.814-9.368,5.654
	c-1.882,1.126-3.765,2.252-5.642,3.386c-30.885,18.658-146.914,88.762-146.914,88.762c-18.256,11.028-37.133,22.432-55.687,33.669
	c-0.291,0.176-0.592,0.342-0.896,0.51c-1.073,0.592-2.096,1.156-2.875,2.327c1.254,0.725,2.599,0.97,4.009,1.227
	c0.468,0.085,0.932,0.17,1.389,0.271c31.393,6.949,65.082,14.388,109.232,24.121c26.729,5.892,53.647,11.812,80.008,17.595
	c2.012,0.441,3.687,0.787,5.404,0.892c0.737,0.045,1.431,0.01,2.064-0.106c0,0,0,0,0.001,0c1.966-0.36,3.398-1.476,4.38-3.41
	c0.326-0.643,0.666-1.279,1.007-1.916c0.283-0.529,0.565-1.057,0.84-1.59l24.262-47.106c12.267-23.819,24.535-47.638,36.805-71.456
	c3.217-6.244,6.437-12.486,9.657-18.728c5.33-10.331,10.659-20.661,15.972-31c0.788-1.533,1.519-3.231,2.172-5.047
	c0.076-0.21,0.025-0.497-0.131-0.749C521.754,389.428,521.522,389.258,521.305,389.234z M662.488,338.496
	c-5.71-1.036-11.614-2.106-17.41-3.228c-1.13-0.219-2.156-0.238-3.136-0.058c-1.454,0.267-2.844,0.997-4.25,2.233
	c-3.227,2.837-6.537,5.685-9.738,8.438c-3.255,2.8-6.62,5.695-9.896,8.577c-1.795,1.579-2.558,2.544-2.55,3.225
	c0.008,0.68,0.766,1.592,2.617,3.148l0.124,0.103c0.12,0.097,0.238,0.195,0.35,0.3c1.224,1.15,2.509,1.583,3.928,1.323
	c0.385-0.071,0.79-0.194,1.202-0.366c0.994-0.414,2.011-0.797,2.994-1.166c0.764-0.287,1.527-0.574,2.284-0.877
	c15.203-6.088,28.931-11.587,42.978-17.239c0.306-0.123,0.62-0.236,0.937-0.351c0.975-0.352,1.911-0.689,2.728-1.387
	c-0.617-0.258-1.161-0.476-1.687-0.574C670.141,339.884,666.315,339.189,662.488,338.496z M662.41,306.992
	c0.528-0.46,0.987-1.054,1.623-1.877c0.088-0.115,0.18-0.233,0.274-0.355c-0.003-0.001-0.005-0.002-0.008-0.002
	c-0.589-0.166-0.978-0.276-1.242-0.263c-1.273,0.064-2.653,0.228-4.344,0.517c-16.837,2.873-33.67,5.763-50.503,8.655l-0.411,0.069
	c-0.245,0.041-0.491,0.082-0.736,0.127c-0.409,0.075-0.943,0.183-1.446,0.352c-1.745,0.587-2.64,2.152-2.455,4.294
	c0.111,1.278,0.826,1.942,2.553,2.37l0.217,0.054c0.472,0.118,0.919,0.229,1.367,0.311c2.734,0.503,5.469,1,8.204,1.496
	c6.393,1.161,13.004,2.361,19.492,3.635c1.18,0.232,2.242,0.255,3.249,0.07c1.429-0.262,2.781-0.965,4.133-2.15
	c3.645-3.194,7.382-6.403,10.995-9.507C656.342,312.239,659.411,309.604,662.41,306.992z M830.951,245.568
	c0.861,0.642,1.722,1.283,2.577,1.932c5.223,3.964,10.152,7.093,15.07,9.565c4.207,2.116,7.524,3.966,10.438,5.824
	c2.186,1.394,4.613,2.482,7.418,3.326c10.071,3.03,20.139,6.071,30.207,9.111c12.948,3.911,26.338,7.955,39.513,11.908
	c19.454,5.837,39.242,11.745,58.379,17.459c9.206,2.749,18.411,5.497,27.616,8.249c2.753,0.823,5.504,1.65,8.256,2.476l19.258,5.778
	c25.434,7.628,50.867,15.256,76.307,22.866c0.573,0.172,1.154,0.313,1.747,0.443c-1.097-0.699-2.221-1.389-3.365-1.959
	c-13.71-6.839-29-13.724-46.746-21.05c-33.328-13.76-68.795-26.851-108.428-40.024c-41.72-13.866-84.468-26.525-127.055-37.626
	c-4.732-1.233-9.599-2.311-14.306-3.353c-1.456-0.322-2.911-0.645-4.365-0.972c0.808,0.781,1.59,1.52,2.433,2.196
	C827.551,243.034,829.28,244.323,830.951,245.568z M371.038,339.587c-0.097,1.353,0.066,2.224,0.496,2.663
	c0.438,0.446,1.323,0.626,2.707,0.553c2.477-0.132,5.009-0.549,7.457-0.953l0.267-0.044c18.033-2.968,36.062-5.955,54.091-8.943
	l38.909-6.45c12.478-2.069,24.956-4.139,37.435-6.205c8.266-1.369,16.533-2.735,24.799-4.101c11.801-1.95,23.602-3.9,35.402-5.858
	c12.39-2.057,24.779-4.12,37.168-6.183c14.178-2.361,28.355-4.722,42.534-7.074c8.201-1.36,16.404-2.708,24.606-4.055
	c8.894-1.461,17.788-2.922,26.679-4.399c12.735-2.116,25.468-4.243,38.202-6.369c14.388-2.403,28.777-4.805,43.168-7.193
	c8.823-1.464,17.797-2.925,26.476-4.338c6.044-0.984,12.088-1.968,18.131-2.96c5.312-0.873,9.765-1.622,14.234-2.441l0.781-0.144
	c0.718-0.133,1.435-0.431,2.194-0.748c0.062-0.026,0.125-0.052,0.187-0.078c-0.301-0.534-0.813-0.803-1.584-1.171
	c-0.322-0.154-0.654-0.313-0.977-0.513c-1.358-0.843-2.765-1.673-4.125-2.476c-2.639-1.558-5.368-3.169-7.924-4.973l-4.687-3.311
	c-9.951-7.033-20.24-14.306-30.573-21.149c-8.983-5.95-18.582-10.933-29.346-15.236c-5.469-2.186-11.29-3.568-17.796-4.223
	c-3.126-0.315-6.056-0.209-8.958,0.323c-2.549,0.467-5.01,1.251-7.522,2.394c-16.584,7.549-34.039,14.25-53.362,20.486
	c-15.162,4.893-29.211,8.936-42.951,12.357l-4.642,1.159c-12.326,3.082-25.071,6.27-37.803,8.614l-6.199,1.14
	c-13.115,2.405-27.101,4.905-41.228,6.721c-25.025,3.217-45.431,5.031-64.22,5.707c-25.312,0.911-46.154,0.056-65.592-2.691
	c-0.928-0.131-1.906-0.234-2.98-0.311l-8.473,4.953c-11.8,12.984-21.143,27.257-27.77,42.424
	c-3.255,7.449-5.316,13.862-6.492,20.205C371.462,336.304,371.154,337.967,371.038,339.587z M632.999,366.121
	c-1.664,0.664-2.895,1.227-3.993,1.827c-0.315,0.172-0.706,0.472-0.784,0.924c-0.067,0.387,0.11,0.839,0.498,1.274
	c0.857,0.96,1.859,1.86,2.828,2.729l0.35,0.315c6.588,5.93,13.18,11.856,19.772,17.782c5.036,4.528,10.072,9.055,15.107,13.585
	l35.751,32.165c23.515,21.157,47.03,42.314,70.548,63.468c0.702,0.631,1.449,1.252,2.171,1.852c0.42,0.349,0.84,0.698,1.255,1.052
	c1.023,0.871,2.012,1.205,3.024,1.019c0.47-0.086,0.965-0.288,1.47-0.598c0.89-0.548,1.785-1.088,2.679-1.628
	c1.199-0.724,2.398-1.448,3.586-2.19c21.05-13.165,42.098-26.332,63.146-39.5l37.45-23.428l17.247-10.786
	c16.128-10.086,32.257-20.171,48.373-30.276c0.281-0.176,0.572-0.343,0.867-0.512c1.056-0.605,2.064-1.182,2.775-2.361
	c-1.714-0.926-3.506-1.189-5.389-1.466c-0.591-0.087-1.177-0.173-1.756-0.279c-36.29-6.662-73.192-13.406-108.88-19.927
	l-44.269-8.086c-33.24-6.069-67.611-12.344-101.407-18.568c-2.497-0.46-4.818-0.48-7.096-0.062
	c-1.302,0.239-2.576,0.614-3.894,1.148c-11.726,4.747-23.677,9.495-35.236,14.087C643.793,361.824,638.394,363.969,632.999,366.121z
	 M630.575,334.01c0.051-0.081,0.102-0.38,0.137-0.578c0.005-0.028,0.009-0.055,0.014-0.083c-0.015-0.016-0.029-0.033-0.044-0.049
	c-0.128-0.143-0.321-0.36-0.391-0.397c-1.523-0.502-2.9-0.866-4.208-1.111c-5.471-1.024-11.042-2.032-16.429-3.006l-3.875-0.702
	c-0.802-0.147-1.559-0.286-2.319-0.348c-0.672-0.054-1.191-0.046-1.587,0.027c-0.614,0.113-1.157,0.333-1.582,1.898
	c-0.888,3.271-1.541,6.493-2.302,10.365c-0.25,1.273,0.078,2.452,0.902,3.233c2.787,2.644,5.777,5.351,9.139,8.276
	c0.423,0.368,0.889,0.499,1.425,0.401c0.326-0.06,0.666-0.202,1.011-0.424c0.69-0.443,1.343-0.974,2.112-1.634
	c5.885-5.051,10.821-9.296,15.786-13.602C629.223,335.533,629.969,334.767,630.575,334.01z M249.314,408.006
	c-6.034,4.986-12.273,10.142-18.391,15.233c-0.176,0.146-0.369,0.286-0.567,0.428c-0.007,0.005-0.013,0.009-0.02,0.014
	c0.566-0.266,1.107-0.535,1.616-0.828c31.378-18.07,62.749-36.154,94.119-54.238l15.439-8.9c1.722-0.992,3.44-1.991,5.158-2.99
	c4.073-2.368,8.284-4.816,12.481-7.137c2.748-1.52,4.04-3.568,4.32-6.847c0.926-10.853,4.125-22.102,9.78-34.39
	c0.536-1.165,0.94-2.382,1.355-3.666c-0.04,0.029-0.079,0.057-0.119,0.085c-1.317,0.945-2.679,1.921-3.933,2.958
	c-30.485,25.198-60.958,50.409-91.431,75.621l-22.544,18.651L249.314,408.006z M860.654,657.892
	c-4.185-7.271-8.469-14.65-12.611-21.785l-18.485-31.86c-16.385-28.245-32.771-56.489-49.165-84.728
	c-2.338-4.028-2.885-4.598-4.18-4.361c-0.978,0.179-2.394,0.849-4.61,1.93c-13.689,6.682-27.927,12.629-42.317,17.677
	c-2.798,0.981-5.729,1.638-8.564,2.273l-1.373,0.309c-0.132,0.03-0.266,0.058-0.401,0.083c-2.015,0.369-3.432-0.218-4.212-1.746
	c-0.323-0.633-0.353-1.354-0.083-2.029c0.425-1.065,1.549-1.965,3.163-2.535c1.613-0.568,3.263-1.101,4.859-1.616
	c2.625-0.848,5.34-1.725,7.916-2.769c11.973-4.858,24.075-9.894,35.969-14.97c1.314-0.561,4.392-1.874,4.544-2.79
	c0.152-0.917-2.313-3.135-3.498-4.201c-44.399-39.942-88.799-79.884-133.202-119.823c-1.58-1.422-3.168-2.835-4.755-4.249
	c-2.452-2.184-4.987-4.442-7.456-6.695c-1.496-1.365-2.983-1.856-4.68-1.545c-0.473,0.087-0.976,0.238-1.495,0.451
	c-3.106,1.275-6.28,2.525-9.348,3.734c-3.477,1.37-7.073,2.787-10.578,4.242c-3.809,1.581-4.139,2.218-3.214,6.198
	c0.917,3.943,1.915,7.789,2.967,11.431c0.705,2.441,1.225,5.608-1.034,8.461c-1.406,1.776-1.776,3.765-1.238,6.651
	c0.146,0.785,0.28,1.572,0.414,2.359c0.119,0.7,0.238,1.4,0.366,2.098c8.027,43.782,26.92,146.815,26.92,146.815
	c0.575,3.565,1.132,7.131,1.69,10.696c1.197,7.659,2.436,15.578,3.827,23.328c5.215,29.035,10.593,58.543,15.795,87.08
	c1.671,9.167,3.342,18.334,5.011,27.501l0.074,0.41c0.268,1.484,0.546,3.018,0.966,4.455c0.68,2.324,1.581,2.919,3.853,2.549
	c0.094-0.015,0.189-0.032,0.283-0.049c0.962-0.176,1.905-0.444,2.904-0.728c0.362-0.103,0.724-0.206,1.087-0.304
	c3.328-0.901,6.656-1.806,9.984-2.711c3.214-0.874,6.428-1.748,9.643-2.619c5.463-1.479,10.926-2.956,16.389-4.433
	c9.078-2.455,18.157-4.909,27.233-7.374c5.758-1.564,11.513-3.139,17.268-4.713c5.505-1.506,11.01-3.013,16.517-4.509
	c5.16-1.402,10.322-2.795,15.485-4.187c5.563-1.5,11.127-3.001,16.687-4.514c4.967-1.352,9.931-2.715,14.895-4.079
	c5.568-1.529,11.137-3.059,16.71-4.572c7.452-2.022,14.907-4.034,22.362-6.045c6.545-1.765,13.089-3.531,19.632-5.304
	c1.007-0.273,1.77-0.56,2.404-0.903c0.513-0.278,1.063-0.775,0.771-1.562C862.187,660.825,861.485,659.336,860.654,657.892z
	 M691.287,932.387l-0.018,0.003l-2.122-11.577c-2.103-11.479-4.206-22.957-6.33-34.431c-0.375-2.022-0.807-3.766-1.321-5.332
	c-0.377-1.147-1.229-1.805-2.464-1.901c-1.241-0.097-2.524-0.198-3.68-0.001c-1.027,0.174-2.056,0.344-3.084,0.513
	c-1.939,0.319-3.943,0.649-5.902,1.008c-2.482,0.455-4.53,0.89-6.448,1.369c-5.52,1.378-5.936,2.064-4.952,8.157
	c0.029,0.178,0.061,0.356,0.094,0.534l2.496,13.63c4.729,25.824,9.459,51.647,14.198,77.469c0.296,1.616,0.623,3.018,1,4.287
	c0.472,1.592,1.543,2.493,3.183,2.679c1.296,0.146,2.722,0.196,4.36,0.153c2.423-0.064,4.818-0.31,7.119-0.732
	c3.273-0.6,6.462-1.575,9.479-2.898c2.724-1.195,3.318-2.203,3.031-5.134c-0.15-1.525-0.44-3.085-0.72-4.595l-0.165-0.893
	c-2.02-11.053-4.048-22.104-6.075-33.155L691.287,932.387z M627.711,723.164c-0.177-1.878-0.533-3.796-0.878-5.65l-0.177-0.954
	c-7.619-41.586-15.245-83.171-22.871-124.758l-4.034-22.002c-0.984-4.95-1.981-9.897-2.978-14.844
	c-2.167-10.754-4.408-21.874-6.471-32.841c-4.288-22.798-8.566-45.993-12.704-68.423c-1.807-9.798-3.615-19.595-5.429-29.392
	c-0.162-0.875-0.331-1.748-0.5-2.621c-0.225-1.164-0.451-2.327-0.659-3.494c-0.565-3.167-1.682-5.051-3.734-6.3
	c-2.314-1.408-3.55-3.717-3.779-7.059c-0.09-1.319-0.215-2.664-0.336-3.965c-0.136-1.467-0.276-2.983-0.37-4.486
	c-0.174-2.784-0.654-4.393-1.51-5.062c-0.37-0.289-1.064-0.637-2.806-0.318c-0.744,0.136-1.609,0.381-2.646,0.746
	c-2.587,0.912-5.172,1.83-7.756,2.747c-6.36,2.258-12.937,4.592-19.438,6.802c-3.296,1.121-5.558,3.146-7.119,6.375
	c-1.94,4.012-4.032,8.025-6.055,11.906c-0.819,1.571-1.639,3.143-2.45,4.718l-14.699,28.529
	c-19.17,37.207-38.34,74.414-57.501,111.625c-0.785,1.524-1.472,3.046-2.041,4.524c-0.096,0.249-0.059,0.534,0.099,0.762
	c0.075,0.107,0.239,0.288,0.497,0.285c1.802-0.018,3.401-0.143,4.889-0.384c2.982-0.482,6.011-1,8.941-1.5
	c4.191-0.716,8.524-1.456,12.803-2.108c4.397-0.67,9.224-1.254,15.191-1.838c1.605-0.157,3.229,0.157,4.745,0.519
	c0.796,0.191,1.403,0.828,1.623,1.704c0.266,1.06-0.065,2.225-0.823,2.9c-1.191,1.058-2.535,1.413-3.573,1.603
	c-0.495,0.091-0.993,0.154-1.474,0.215c-0.261,0.033-0.522,0.066-0.781,0.104c-4.226,0.611-8.453,1.219-12.68,1.827
	c-9.216,1.326-18.746,2.697-28.113,4.076c-0.464,0.068-0.893,0.137-1.288,0.21c-3.397,0.623-3.942,1.247-4.858,5.565
	c-0.258,1.214-0.464,2.472-0.664,3.689l-0.026,0.158c-0.468,2.854-0.932,5.709-1.397,8.564c-0.594,3.653-1.189,7.306-1.79,10.958
	c-3.558,21.601-19.814,120.245-19.814,120.245c-1.818,11.033-3.697,22.442-5.518,33.666c-0.349,2.149-0.539,3.89-0.598,5.481
	c-0.02,0.548,0.131,1.001,0.439,1.309c0.307,0.307,0.759,0.459,1.307,0.439c1.636-0.06,3.4-0.267,5.394-0.632l0.05-0.009
	c75.001-13.832,147.962-27.31,209.442-38.67l0.193-0.036c1.368-0.252,2.783-0.514,4.099-0.917
	C627.321,726.464,627.934,725.533,627.711,723.164z M1114.866,492.988c-1.177-0.964-2.742-2.212-4.419-3.322
	c-10.165-6.724-20.336-13.439-30.507-20.154c-10.257-6.772-20.515-13.544-30.766-20.326c-25.485-16.86-51.433-34.057-75.826-50.227
	l-0.094-0.062c-3.522-2.335-4.702-3.062-6.076-2.81c-1.178,0.216-2.784,1.219-5.214,2.737c-11.101,6.932-22.195,13.875-33.29,20.817
	l-16.516,10.334l-27.546,17.228c-30.568,19.117-61.135,38.234-91.698,57.36l-0.134,0.084c-2.293,1.435-4.665,2.919-6.833,4.559
	c-1.46,1.104-1.691,2.043-0.915,3.724c0.864,1.874,1.935,3.718,2.971,5.501l0.214,0.368c3.068,5.287,6.144,10.57,9.221,15.853
	c3.274,5.623,6.549,11.246,9.813,16.874c8.902,15.35,17.802,30.701,26.701,46.052c10.75,18.543,21.499,37.085,32.254,55.625
	c0.762,1.314,1.66,2.828,2.672,4.173c0.81,1.077,1.378,1.138,1.827,1.056c0.339-0.062,0.739-0.242,1.189-0.535
	c0.892-0.58,1.722-1.247,2.601-1.954c0.304-0.244,0.607-0.489,0.913-0.729c1.174-0.921,2.343-1.85,3.512-2.778
	c2.188-1.737,4.45-3.534,6.715-5.257c24.619-18.72,49.413-35.871,70.419-50.179c26.663-18.161,53.674-36.24,80.282-53.733
	c23.836-15.671,49.289-32.196,75.368-46.841c1.129-0.634,2.19-1.337,3.143-2.08c0.066-0.069,0.178-0.346,0.251-0.529
	c0.021-0.051,0.041-0.103,0.063-0.154c-0.019-0.048-0.037-0.096-0.056-0.144C1115.034,493.332,1114.925,493.052,1114.866,492.988z
	 M1148.771,358.6c-1.698-0.739-3.505-1.303-5.211-1.818l-2.928-0.884c-23.861-7.203-48.535-14.651-72.812-21.942
	c-23.435-7.037-46.875-14.063-70.313-21.088c-14.63-4.385-29.259-8.77-43.888-13.157c-6.531-1.959-13.06-3.924-19.59-5.889
	c-9.522-2.865-19.045-5.731-28.573-8.578c-7.828-2.339-15.663-4.658-23.498-6.977c-5.349-1.583-10.699-3.167-16.046-4.756
	c-3.285-0.977-5.882-1.222-8.421-0.794c-13.069,2.2-26.364,4.384-39.222,6.496c-7.365,1.21-14.729,2.42-22.092,3.639
	c-6.01,0.995-12.116,2.041-18.022,3.053c-2.718,0.465-5.435,0.931-8.153,1.393l-1.029,0.175l-0.038-0.235
	c-1.227,0.191-2.455,0.38-3.682,0.568c-3.397,0.522-6.91,1.062-10.352,1.644c-5.281,0.893-10.559,1.804-15.837,2.716
	c-7.22,1.247-14.686,2.536-22.039,3.755c-9.923,1.645-20.514,3.319-32.377,5.115c-0.227,0.034-0.453,0.072-0.676,0.113
	c-3.546,0.65-6.601,2.146-9.338,4.572c-4.656,4.127-9.461,8.235-14.108,12.209c-2.577,2.204-5.155,4.408-7.721,6.626
	c-1.071,0.925-2.108,1.962-3.083,3.081c-0.223,0.255-0.173,0.537-0.141,0.646c0.037,0.129,0.145,0.359,0.441,0.447
	c1.664,0.493,3.422,0.905,5.375,1.262c20.434,3.734,40.87,7.46,61.306,11.186c22.551,4.112,45.102,8.224,67.651,12.346
	c31.063,5.678,62.125,11.364,93.187,17.051c26.926,4.929,53.852,9.858,80.778,14.782c2.547,0.466,4.435,0.78,5.529,0.579
	c1.276-0.234,1.716-1.254,2.613-6.065c1.93-10.35,3.73-20.712,5.237-29.482c0.804-4.682,1.593-9.45,2.355-14.06
	c0.87-5.26,1.77-10.699,2.698-16.043c0.403-2.319,1.119-4.57,1.834-6.658c0.33-0.964,1.141-1.674,2.117-1.853
	c0.531-0.097,1.081-0.032,1.593,0.189c0.763,0.33,1.921,1.343,1.981,2.466c0.099,1.831,0.005,3.605-0.277,5.272
	c-3.125,18.432-6.339,37.177-9.552,55.714c-0.67,3.862-1.29,6.789-2.01,9.488c-0.767,2.873,0.056,4.891,2.67,6.542
	c0.827,0.523,1.632,1.087,2.411,1.633c0.599,0.42,1.198,0.84,1.808,1.242c6.446,4.248,12.894,8.492,19.343,12.737
	c11.451,7.536,23.291,15.329,34.923,23.017c9.187,6.072,18.511,12.27,27.527,18.265c5.889,3.915,11.779,7.831,17.672,11.739
	c12.219,8.104,24.188,16.038,36.284,24.01c0.909,0.599,3.038,2.002,3.787,1.865c0.668-0.122,1.206-2.905,1.436-4.093l0.525-2.714
	c4.476-23.144,9.104-47.077,16.058-70.096c0.494-1.635,0.916-3.335,1.325-4.979c0.305-1.228,0.621-2.498,0.966-3.744
	c1.198-4.32,2.29-8.754,3.346-13.042c2.004-8.141,4.077-16.559,6.981-24.628c0.17-0.471,0.306-0.969,0.406-1.48
	C1150.219,359.571,1149.727,359.016,1148.771,358.6z M415.676,649.922c1.535-9.321,3.076-18.641,4.616-27.961
	c1.84-11.132,3.68-22.264,5.511-33.398c0.278-1.688,0.496-3.369,0.689-4.851c0.075-0.576,0.145-1.113,0.211-1.596
	c-0.101-2.528-1.061-3.184-2.085-3.515c-1.372-0.443-2.902-0.846-4.815-1.27c-15.111-3.342-30.224-6.673-45.338-10.005
	l-41.688-9.193c-36.85-8.127-73.701-16.253-110.552-24.375c-1.379-0.304-2.627-0.54-3.817-0.721c-0.668-0.102-1.299-0.1-1.876,0.006
	c-1.206,0.221-2.217,0.885-3.094,2.03l-0.509,0.659c-0.401,0.518-0.802,1.035-1.185,1.566c-3.937,5.459-7.876,10.917-11.814,16.376
	c-10.653,14.762-21.668,30.028-32.47,45.063c-8.225,11.449-16.556,23.115-24.613,34.396c-3.851,5.392-7.701,10.784-11.555,16.174
	c-0.302,0.422-0.612,0.838-0.921,1.254c-0.254,0.341-0.509,0.682-0.758,1.027c-3.134,4.333-6.271,8.664-9.407,12.995
	c-8.107,11.194-16.49,22.769-24.689,34.186c-0.646,0.9-2.613,3.637-2.302,4.337c0.301,0.677,3.524,1.038,4.583,1.156
	c21.387,2.392,44.153,5.829,73.818,11.142c52.885,9.473,104.085,20.154,152.18,31.748c21.677,5.226,44.874,11.097,67.63,18.613
	l0.451,0.151c0.556,0.188,1.081,0.366,1.606,0.482c0.657,0.146,1.198,0.181,1.607,0.106c0.507-0.093,1.074-0.38,1.435-1.804
	c0.663-2.61,1.121-5.271,1.609-8.228c3.495-21.19,6.982-42.382,10.468-63.575C410.96,678.571,413.316,664.246,415.676,649.922z
	 M533.317,367.694c0.332-0.061,0.85-0.281,1.513-1.481c2.125-3.849,4.122-7.916,5.884-11.505c0.415-0.845,0.982-2.478,0.108-3.916
	c-1.798-2.959-3.825-6-6.198-9.295c-0.597-0.829-1.598-0.786-2.142-0.686c-0.111,0.02-0.222,0.046-0.333,0.077
	c-0.642,0.181-1.309,0.393-1.838,0.711c-6.867,4.127-14.848,8.932-22.671,13.74c-0.303,0.186-0.602,0.608-0.919,1.055
	c-0.054,0.075-0.108,0.152-0.163,0.228c0.028,0.044,0.123,0.194,0.141,0.223c6.08,3.29,12.651,5.795,19.008,8.218
	c2.02,0.77,4.108,1.566,6.154,2.377C532.467,367.679,532.943,367.762,533.317,367.694z M498.382,352.149
	c0.996-0.183,2.102-0.507,3.286-0.963c5.279-2.033,11.279-6.286,16.573-10.038c2.495-1.768,4.851-3.438,6.774-4.602l0.262-0.158
	c0.979-0.59,1.992-1.2,2.707-1.962c0.333-0.354,0.578-1.147,0.514-1.663c-0.078-0.629-0.653-1.075-1.337-1.038
	c-1.21,0.066-2.459,0.216-3.713,0.446c-0.548,0.1-1.104,0.218-1.653,0.348c-2.469,0.587-4.97,1.252-7.389,1.896
	c-1.353,0.36-2.705,0.719-4.061,1.069c-3.175,0.818-6.351,1.633-9.527,2.448c-7.436,1.909-15.126,3.883-22.679,5.857
	c-0.778,0.203-1.219,0.439-1.483,0.72c3.551,2.307,7.81,3.948,11.938,5.539c0.716,0.276,1.425,0.549,2.123,0.823
	c2.014,0.791,3.984,1.497,5.934,1.462C497.193,352.321,497.774,352.26,498.382,352.149z M543.377,372.19
	c0.89,0.396,1.779,0.798,2.668,1.201c4.312,1.952,8.751,3.961,13.385,5.241c-2.537-5.155-5.955-9.862-9.272-14.43
	c-0.906-1.249-1.813-2.497-2.704-3.755c-0.22-0.31-0.506-0.451-0.807-0.396c-0.282,0.052-0.553,0.269-0.744,0.598
	c-1.344,2.31-2.746,4.803-3.9,7.379c-0.559,1.246-0.715,2.097-0.493,2.678C541.713,371.235,542.324,371.721,543.377,372.19z
	 M149.26,612.044c7.778-10.832,15.661-21.864,23.286-32.532c3.966-5.549,7.931-11.098,11.9-16.644
	c0.4-0.559,0.811-1.109,1.223-1.659c0.379-0.507,0.758-1.013,1.127-1.527c5.941-8.256,11.879-16.514,17.809-24.778
	c0.51-0.711,1.042-1.477,1.476-2.263c1.454-2.632,1.193-5.534-0.697-7.764c-0.725-0.855-1.549-1.623-2.421-2.437
	c-0.378-0.352-0.756-0.705-1.125-1.065l-6.742-6.562c-8.012-7.797-16.298-15.861-24.427-23.813c-0.775-0.758-1.478-1.72-2.148-2.94
	c-0.343-0.623-0.338-1.405,0.014-2.146c0.403-0.848,1.189-1.493,2.003-1.642c0.31-0.057,0.617-0.045,0.912,0.035
	c1.145,0.312,2.449,0.713,3.429,1.539c3.387,2.851,6.076,5.26,8.463,7.582c3.765,3.662,7.567,7.409,11.244,11.033
	c4.899,4.827,9.964,9.819,15,14.668c3.174,3.056,4.499,3.809,6.163,3.504c1.216-0.223,2.771-1.055,4.886-2.325
	c11.904-7.148,23.56-14.183,33.392-20.122c67.713-40.903,135.423-81.809,203.133-122.717c8.565-5.175,17.771-10.742,27.063-16.392
	c1.352-0.822,2.529-1.636,3.598-2.488c0.15-0.119,0.222-0.276,0.214-0.467c-0.012-0.277-0.19-0.563-0.465-0.746
	c-0.41-0.273-0.85-0.552-1.292-0.734c-7.992-3.296-14.118-5.808-19.821-8.132c-2.218-0.615-32.257-0.135-70.093,6.803
	c-7.876,1.444-15.677,3.095-23.188,4.906c-5.409,1.304-68.717,28.944-73.158,31.51c-29.101,16.813-58.711,33.868-87.347,50.361
	l-28.672,16.516c0,0-73.708,42.472-90.574,52.189c-4.174,2.404-8.35,4.805-12.526,7.204c-8.417,4.837-17.122,9.839-25.659,14.797
	c-5.751,3.34-5.918,3.725-4.482,10.303c2.476,11.337,5.086,22.845,7.61,33.974l1.173,5.173c0.97,4.28,1.991,8.626,2.979,12.829
	c0.46,1.959,0.921,3.918,1.378,5.878l2.097,9c1.566,6.724,3.132,13.448,4.709,20.169c1.091,4.649,2.188,9.296,3.286,13.943
	c1.688,7.148,3.434,14.539,5.125,21.816c1.095,4.715,2.184,9.513,3.237,14.153c1.12,4.934,2.278,10.036,3.445,15.045
	c0.158,0.677,0.469,1.355,0.901,2.293c0.064,0.139,0.13,0.284,0.199,0.433c0.103-0.105,0.202-0.205,0.297-0.301
	c0.661-0.669,1.138-1.152,1.516-1.655c3.197-4.26,6.321-8.437,9.396-12.705C114.303,660.658,131.714,636.481,149.26,612.044z
	 M65.959,518.464c39.864-22.95,82.52-47.518,124.352-71.679c2.49-1.438,4.932-3.14,7.26-5.059
	c18.918-15.595,38.116-31.497,56.681-46.875l7.331-6.072c5.076-4.204,9.751-8.117,14.292-11.963
	c0.074-0.063,0.153-0.126,0.234-0.191c0.064-0.051,0.152-0.121,0.235-0.19c-0.207,0.03-0.414,0.061-0.621,0.099
	c-0.324,0.059-0.584,0.124-0.816,0.202c-15.211,5.144-30.936,9.414-46.143,13.544c-5.175,1.406-10.526,2.859-15.779,4.325
	c-5.873,1.64-11.947,3.335-17.597,5.698c-20.914,8.746-38.442,19.39-53.586,32.539c-8.314,7.219-16.227,15.136-23.88,22.792
	l-0.975,0.975c-18.408,18.413-36.113,38.701-54.127,62.025c-0.411,0.532-0.753,1.152-1.209,1.991
	c1.473-0.432,2.525-1.068,3.548-1.686C65.427,518.778,65.692,518.618,65.959,518.464z"/>
</svg>
